<svg xmlns="http://www.w3.org/2000/svg" version="1.1" xmlns:xlink="http://www.w3.org/1999/xlink" xmlns:svgjs="http://svgjs.com/svgjs" width="2160" height="900" preserveAspectRatio="none" viewBox="0 0 2160 900"><g clip-path="url(&quot;#SvgjsClipPath1007&quot;)" fill="none"><circle r="150" cx="47.69" cy="59.51" stroke="#ffdcb2" stroke-opacity="1" stroke-width="2"></circle><circle r="150" cx="644.57" cy="455.4" stroke="#ffdcb2" stroke-opacity="1" stroke-width="2"></circle><circle r="150" cx="1334.94" cy="1278.88" stroke="#ffdcb2" stroke-opacity="1" stroke-width="2"></circle><circle r="189.75" cx="442.68" cy="567.93" stroke="#ffdcb2" stroke-opacity="1" stroke-width="2"></circle><circle r="258.115" cx="2086.58" cy="232.63" stroke="#ffdcb2" stroke-opacity="1" stroke-width="2"></circle><circle r="187.06" cx="812.15" cy="529.14" stroke="#ffdcb2" stroke-opacity="1" stroke-width="2"></circle><circle r="219.78" cx="1409.11" cy="754.9" stroke="#ffdcb2" stroke-opacity="1" stroke-width="2"></circle><circle r="111.68" cx="647.51" cy="723.43" stroke="#ffdcb2" stroke-opacity="1" stroke-width="2"></circle><circle r="261.615" cx="1423.11" cy="386.79" stroke="#ffdcb2" stroke-opacity="1" stroke-width="2"></circle><circle r="240.275" cx="1526.31" cy="403.42" stroke="#ffdcb2" stroke-opacity="1" stroke-width="2"></circle><circle r="272.005" cx="376.49" cy="68.63" stroke="#ffdcb2" stroke-opacity="1" stroke-width="2"></circle><circle r="122.72" cx="1742.54" cy="242.87" stroke="#ffdcb2" stroke-opacity="1" stroke-width="2"></circle><circle r="274.39" cx="1148.97" cy="892.78" stroke="#ffdcb2" stroke-opacity="1" stroke-width="2"></circle><circle r="126.945" cx="1230.85" cy="208.26" stroke="#ffdcb2" stroke-opacity="1" stroke-width="2"></circle><circle r="151.39" cx="671.24" cy="49.25" stroke="#ffdcb2" stroke-opacity="1" stroke-width="2"></circle><circle r="202.325" cx="695.53" cy="709.19" stroke="#ffdcb2" stroke-opacity="1" stroke-width="2"></circle><circle r="86.08" cx="25.6" cy="427.07" stroke="#ffdcb2" stroke-opacity="1" stroke-width="2"></circle><circle r="210.775" cx="242.66" cy="651.43" stroke="#ffdcb2" stroke-opacity="1" stroke-width="2"></circle></g><defs><clipPath id="SvgjsClipPath1007"><rect width="2160" height="900" x="0" y="0"></rect></clipPath></defs></svg>