<svg xmlns="http://www.w3.org/2000/svg" viewBox="0 0 252.44 197.55"><defs><style>.cls-1{fill:#2b3748;}.cls-2{fill:#b7b796;}.cls-3{fill:#ebcfb2;}.cls-4{fill:#f0e6e8;}.cls-5{fill:#424b54;}.cls-6{fill:#d4d4d8;}.cls-7{fill:#313646;}.cls-8{fill:#2b3c48;opacity:0.4;}</style></defs><g id="Layer_2" data-name="Layer 2"><g id="Layer_1-2" data-name="Layer 1"><path class="cls-1" d="M96.51,184.62c-9.36,1.93-18.45,3.67-27.46,5.75a14.34,14.34,0,0,0-5.42,3.22c-2.68,2.2-5.17,4.87-9.05,3.64a10.3,10.3,0,0,1-7.62-10c-.1-3.8,1.18-7.63,1.52-11.47.15-1.59,0-3.82-.93-4.79C34.74,158.14,28.2,142.29,25.3,124.75c-1.37-8.33-2.17-16.76-3.15-24.57-5.22-1.64-10.63-2.7-15.46-5C-4,90.18-.15,83,6.14,77.46c4.19-3.66,9.56-4,14.55-1.51,3.27,1.65,5.57.77,7.69-1.5A50,50,0,0,1,53.23,59.92c3-.76,6.65-1.31,8.59-3.32s2.54-5.91,3.66-8.87c-9.78-8.92-20.17-6.86-31-1.88a11.15,11.15,0,0,0,.85,2.75c3.22,5.25-.45,11.92-5.47,13.68a10.89,10.89,0,0,1-13.7-7c-1.8-6,1.31-10.89,7.52-12.74,1.61-.48,3.26-2.57,3.88-4.28,3.68-10.12,8.63-19.45,16.15-27.22C54.48,0,68.93-3.2,83.65,3.49c8,3.62,14.87,9.51,22.58,13.79,3,1.68,6.93,2.29,10.48,2.46a52.51,52.51,0,0,1,22.49,6.52A5,5,0,0,0,145,26c7.13-4.62,14.65-8.5,23.08-10a60.44,60.44,0,0,1,13.28-1c3.33.15,5-1,6.42-3.76,2.94-5.77,7.17-9.66,14.3-8.83,5.2.61,9.29,4.18,9.51,9.41a43.48,43.48,0,0,1-1.1,12.31c-1.27,5-.77,9.27,2.51,13.36,9.35,11.63,14.35,25.09,16.25,39.79a22.72,22.72,0,0,1,.37,2.57c.11,8.36,2.21,14.37,12.1,16.41,6.61,1.36,9.11,8.13,8.1,14.87-1,7-6.12,12.41-12.78,13.37a20,20,0,0,0-12,6c-8.72,9.08-20.07,12-32,13.8a16.84,16.84,0,0,0-7.08,2.47c-21.46,15.18-43.3,29.69-67.75,39.73a82,82,0,0,1-13.1,3.84C99.16,191.7,97.06,190.06,96.51,184.62Zm120.15-69.95q3.34-4.41,6.7-8.83c-.42-.64-.83-1.28-1.24-1.93l-10.07,2.8c-9,4.06-18.14,8-27.07,12.25-4.48,2.14-8.65,4.91-13.38,7.63,5.58,6.89,6.34,14.1,4.12,22C190.62,138.41,204.83,128,216.66,114.67Zm-8-11.69,5.92-1.56c-1.75-1.12-2.81-1.83-3.9-2.5a150,150,0,0,1-44-40.73,133.17,133.17,0,0,0-17.7-20.49c-10.52-9.67-23.1-15.1-37.84-14.05C79.7,22.89,63.18,50.29,63.49,74.71c.17,13.92,5.34,26.45,12.88,38,9.8,15,17.18,30.94,20.92,48.51,1,5,2.12,9.9,3.23,15.1A345.47,345.47,0,0,1,208.61,103ZM29.76,42.5l1.1.87c1.05-.4,2.11-.78,3.15-1.2,7.12-2.88,14.28-5.24,22.18-3.62.79.17,2.41-1.18,2.83-2.17A32.15,32.15,0,0,1,73.64,19.92c6-3.19,12.36-5.61,18.76-8.45-2.29-1.22-4.6-2.66-7.07-3.73-13.06-5.68-26.07-6.63-36.95,4-5.64,5.5-9.7,12.72-14,19.49C32.27,34.58,31.27,38.7,29.76,42.5ZM140,147.56c-14.61,11.75-29.78,21.94-39.76,38,8.1,2.88,53.55-18.12,59-26.69C150.56,159.58,144.76,155.12,140,147.56Zm3.72-2.7c2.89,6.08,7,9.62,13.43,10s10.91-2.45,13.8-7.87,2.33-10.64-1.18-15.47c-.67-.92-3-1.83-3.66-1.39C158.6,134.84,151.24,139.86,143.74,144.86Zm-82-104.3c3.54,3.46,5.43,2.3,8.28-.75A97,97,0,0,1,86.67,25.25c4.53-3,10.29-4.17,16.69-6.61-3.13-1.23-5.75-3.34-7.79-2.88A82.69,82.69,0,0,0,78.1,21.61C70.09,25.45,64.2,31.61,61.7,40.56Zm19.83,88.82c-7.16,5.92-13,11.5-14,20.39-.15,1.42.76,2.94,1.19,4.42,1.09-1,2.58-1.75,3.19-3,2.12-4.22,4.64-7.84,9.38-9.51,1.54-.54,2.83-1.79,4.56-2.93ZM33.35,52.92a7.94,7.94,0,0,0-8-7.44,7.07,7.07,0,0,0-6.61,7.12,7.75,7.75,0,0,0,7.71,7.18A7,7,0,0,0,33.35,52.92Zm136.82.79c1.19-5.19,2.41-9.52,3.09-13.93.32-2-.83-4-3.42-2.51C164.56,40.2,164,49.12,170.17,53.71ZM62.82,93.88c-1.11-2.44-1.74-6.11-3.18-6.46-2.15-.52-5,1.1-7.29,2.23-.81.39-1.67,2.62-1.33,3a5.43,5.43,0,0,0,3.5,1.78A70.19,70.19,0,0,0,62.82,93.88Z"/><path class="cls-2" d="M208.61,103A345.47,345.47,0,0,0,100.52,176.3c-1.11-5.2-2.18-10.15-3.23-15.1-3.74-17.57-11.12-33.54-20.92-48.51-7.54-11.53-12.71-24.06-12.88-38-.31-24.42,16.21-51.82,47.56-51.06A42.14,42.14,0,0,0,116,25c13.28,1.92,24,8.64,33.08,18.08a154.12,154.12,0,0,1,13.5,16.8A161.59,161.59,0,0,0,208.61,103ZM113.92,86.11l-1,.75c2.43,3,4.44,6.53,7.39,8.87a7.49,7.49,0,0,0,12-4.89c.77-6.7-2.14-12-6.72-16.91.82,5,1.9,9.68,2.24,14.37.3,4.18-2.52,5.82-6.19,3.69C118.88,90.37,116.49,88.09,113.92,86.11ZM91.84,101.39c.49,2.65,1.12,5.29,1.43,8,.33,2.93-1,4.12-3.87,2.88-2-.85-4-1.79-5.94-2.68,1.45,4.38,4,7.55,8.48,7.38a6.9,6.9,0,0,0,5-3.78C98.64,108.28,96,104.44,91.84,101.39Z"/><path class="cls-3" d="M29.76,42.5c1.51-3.8,2.51-7.92,4.66-11.31,4.26-6.77,8.32-14,14-19.49,10.88-10.59,23.89-9.64,36.95-4,2.47,1.07,4.78,2.51,7.07,3.73-6.4,2.84-12.79,5.26-18.76,8.45A32.15,32.15,0,0,0,59,36.38c-.42,1-2,2.34-2.83,2.17-7.9-1.62-15.06.74-22.18,3.62-1,.42-2.1.8-3.15,1.2Z"/><path class="cls-2" d="M140,147.56c4.74,7.56,10.54,12,19.23,11.33-5.44,8.57-50.89,29.57-59,26.69C110.24,169.5,125.41,159.31,140,147.56Z"/><path class="cls-2" d="M216.66,114.67c-11.83,13.31-26,23.74-40.94,33.91,2.22-7.89,1.46-15.1-4.12-22,4.73-2.72,8.9-5.49,13.38-7.63,8.93-4.26,18-8.19,27.07-12.25C218.64,107.51,218.86,107.9,216.66,114.67Z"/><path class="cls-4" d="M208.61,103a161.59,161.59,0,0,1-46-43.11,154.12,154.12,0,0,0-13.5-16.8c-9-9.44-19.8-16.16-33.08-18.08a42.14,42.14,0,0,1-5-1.34c14.74-1,27.32,4.38,37.84,14.05a133.17,133.17,0,0,1,17.7,20.49,150,150,0,0,0,44,40.73c1.09.67,2.15,1.38,3.9,2.5Z"/><path class="cls-3" d="M143.74,144.86c7.5-5,14.86-10,22.39-14.76.69-.44,3,.47,3.66,1.39,3.51,4.83,4,10.17,1.18,15.47s-7.56,8.22-13.8,7.87S146.63,150.94,143.74,144.86Z"/><path class="cls-3" d="M61.7,40.56c2.5-9,8.39-15.11,16.4-19a82.69,82.69,0,0,1,17.47-5.85c2-.46,4.66,1.65,7.79,2.88C97,21.08,91.2,22.23,86.67,25.25A97,97,0,0,0,70,39.81C67.13,42.86,65.24,44,61.7,40.56Z"/><path class="cls-5" d="M82.44,127c2,4.26,3.53,7.59,5.19,11.18-2,1.35-3.59,2.84-5.42,3.49C76.57,143.68,73.57,148,71,153c-.73,1.45-2.5,2.37-3.79,3.53-.51-1.75-1.6-3.57-1.42-5.25C66.92,140.71,73.93,134.06,82.44,127Z"/><path class="cls-3" d="M33.35,52.92a7,7,0,0,1-6.88,6.86,7.75,7.75,0,0,1-7.71-7.18,7.07,7.07,0,0,1,6.61-7.12A7.94,7.94,0,0,1,33.35,52.92Z"/><path class="cls-5" d="M170.29,55.23c-7.26-5.42-6.61-15.93-.4-19.38,3.07-1.71,4.41.56,4,2.95C173.13,44,171.7,49.1,170.29,55.23Z"/><path class="cls-5" d="M63.77,94.36c-4.15.33-6.9.81-9.62.66A6.3,6.3,0,0,1,50.08,93c-.4-.47.6-3,1.54-3.51,2.7-1.32,6-3.2,8.46-2.59C61.76,87.27,62.49,91.53,63.77,94.36Z"/><path class="cls-6" d="M216.66,114.67c2.2-6.77,2-7.16-4.61-8l10.07-2.8c.41.65.82,1.29,1.24,1.93Q220,110.25,216.66,114.67Z"/><path class="cls-7" d="M113.92,86.11c2.57,2,5,4.26,7.74,5.88,3.67,2.13,6.49.49,6.19-3.69-.34-4.69-1.42-9.34-2.24-14.37,4.58,4.87,7.49,10.21,6.72,16.91a7.49,7.49,0,0,1-12,4.89c-3-2.34-5-5.88-7.39-8.87Z"/><path class="cls-7" d="M91.84,101.39c4.2,3,6.8,6.89,5.1,11.76a6.9,6.9,0,0,1-5,3.78c-4.44.17-7-3-8.48-7.38,2,.89,3.94,1.83,5.94,2.68,2.89,1.24,4.2,0,3.87-2.88C93,106.68,92.33,104,91.84,101.39Z"/><path class="cls-8" d="M99,184.62c-9.36,1.93-18.45,3.67-27.46,5.75-2,.45-3.81,1.89-5.43,3.22-2.68,2.2-5.17,4.87-9,3.64a10.29,10.29,0,0,1-7.62-10c-.11-3.8,1.17-7.63,1.52-11.47.14-1.59,0-3.82-.93-4.79-12.82-12.86-19.35-28.71-22.25-46.25-1.38-8.33-2.17-16.76-3.16-24.57-5.22-1.64-10.62-2.7-15.45-5-10.67-5-6.85-12.26-.56-17.75,4.19-3.66,9.56-4,14.55-1.51,3.27,1.65,5.57.77,7.69-1.5A50.08,50.08,0,0,1,55.67,59.92c3-.76,6.65-1.31,8.6-3.32s2.53-5.91,3.65-8.87c-9.77-8.92-20.17-6.86-31-1.88a11.15,11.15,0,0,0,.85,2.75c3.22,5.25-.44,11.92-5.47,13.68a10.9,10.9,0,0,1-13.7-7c-1.8-6,1.32-10.89,7.53-12.74,1.6-.48,3.25-2.57,3.88-4.28,3.68-10.12,8.62-19.45,16.14-27.22C56.92,0,71.38-3.2,86.1,3.49c8,3.62,14.87,9.51,22.57,13.79,3,1.68,6.93,2.29,10.48,2.46a52.51,52.51,0,0,1,22.49,6.52A5,5,0,0,0,147.4,26c7.14-4.62,14.66-8.5,23.08-10a60.49,60.49,0,0,1,13.28-1c3.33.15,5-1,6.42-3.76,2.94-5.77,7.17-9.66,14.3-8.83,5.21.61,9.29,4.18,9.51,9.41a43.12,43.12,0,0,1-1.1,12.31c-1.26,5-.77,9.27,2.52,13.36,9.34,11.63,14.35,25.09,16.25,39.79a22.72,22.72,0,0,1,.37,2.57c.1,8.36,2.2,14.37,12.1,16.41,6.6,1.36,9.11,8.13,8.1,14.87-1,7-6.13,12.41-12.79,13.37a20,20,0,0,0-12,6c-8.72,9.08-20.07,12-32,13.8a16.74,16.74,0,0,0-7.07,2.47c-21.47,15.18-43.31,29.69-67.76,39.73a81.74,81.74,0,0,1-13.1,3.84C101.6,191.7,99.5,190.06,99,184.62ZM219.1,114.67q3.36-4.41,6.7-8.83l-1.24-1.93-10.06,2.8c-9,4.06-18.14,8-27.08,12.25-4.47,2.14-8.65,4.91-13.38,7.63,5.59,6.89,6.35,14.1,4.12,22C193.07,138.41,207.27,128,219.1,114.67Zm-8-11.69,5.92-1.56c-1.74-1.12-2.81-1.83-3.9-2.5a150.28,150.28,0,0,1-44-40.73,133.17,133.17,0,0,0-17.7-20.49c-10.51-9.67-23.1-15.1-37.84-14.05-31.35-.76-47.87,26.64-47.56,51.06.17,13.92,5.35,26.45,12.89,38,9.79,15,17.18,30.94,20.91,48.51,1,5,2.12,9.9,3.23,15.1A345.59,345.59,0,0,1,211.05,103ZM32.2,42.5l1.1.87c1.06-.4,2.11-.78,3.16-1.2,7.11-2.88,14.28-5.24,22.18-3.62.78.17,2.41-1.18,2.82-2.17A32.17,32.17,0,0,1,76.09,19.92c6-3.19,12.35-5.61,18.75-8.45-2.28-1.22-4.6-2.66-7.07-3.73-13.06-5.68-26.07-6.63-36.94,4-5.65,5.5-9.71,12.72-14,19.49C34.72,34.58,33.72,38.7,32.2,42.5ZM142.47,147.56c-14.62,11.75-29.79,21.94-39.77,38,8.1,2.88,53.55-18.12,59-26.69C153,159.58,147.2,155.12,142.47,147.56Zm3.71-2.7c2.89,6.08,7,9.62,13.43,10s10.91-2.45,13.8-7.87,2.33-10.64-1.18-15.47c-.67-.92-3-1.83-3.66-1.39C161,134.84,153.68,139.86,146.18,144.86Zm-82-104.3c3.54,3.46,5.43,2.3,8.28-.75a97.1,97.1,0,0,1,16.7-14.56c4.53-3,10.29-4.17,16.69-6.61-3.13-1.23-5.76-3.34-7.8-2.88a82.69,82.69,0,0,0-17.47,5.85C72.53,25.45,66.65,31.61,64.14,40.56ZM84,129.38c-7.15,5.92-13,11.5-14,20.39-.15,1.42.77,2.94,1.19,4.42,1.09-1,2.58-1.75,3.19-3,2.13-4.22,4.64-7.84,9.39-9.51,1.54-.54,2.83-1.79,4.56-2.93C86.94,135.76,85.64,133,84,129.38ZM35.79,52.92a7.94,7.94,0,0,0-8-7.44A7.08,7.08,0,0,0,21.2,52.6a7.76,7.76,0,0,0,7.71,7.18A7,7,0,0,0,35.79,52.92Zm136.83.79c1.19-5.19,2.41-9.52,3.09-13.93.31-2-.83-4-3.43-2.51C167,40.2,166.46,49.12,172.62,53.71ZM65.26,93.88c-1.11-2.44-1.74-6.11-3.18-6.46-2.15-.52-5,1.1-7.29,2.23-.8.39-1.67,2.62-1.33,3A5.45,5.45,0,0,0,57,94.45,70,70,0,0,0,65.26,93.88Z"/></g></g></svg>