<svg xmlns="http://www.w3.org/2000/svg" viewBox="0 0 384 383.3"><defs><style>.cls-1{fill:#504538;}.cls-2{fill:#827567;}</style></defs><g id="Layer_2" data-name="Layer 2"><g id="Layer_1-2" data-name="Layer 1"><path class="cls-1" d="M0,355.56c1.83-7,6.35-12.14,11.38-17.13Q63.17,287,114.78,235.32c9-9,16.95-9.6,27-2.31l23-23c-.43-.54-1.15-1.49-1.94-2.39C103.64,139.17,134.51,32,221.21,5.61c8.06-2.45,16.59-3.35,24.9-5C247.08.45,248,.21,249,0h18.75c2.8.45,5.6,1,8.41,1.35,49.88,6.7,92.71,45.39,104.1,94.22,1.57,6.74,2.51,13.63,3.74,20.45v18.72c-1.21,6.85-2.09,13.77-3.68,20.53-11.33,48.15-51.89,86.1-100.68,94-39.32,6.39-74.16-3.62-104.51-29.35-.56-.47-1.13-.91-1.48-1.19L150.59,241.9a3.6,3.6,0,0,0,.38.58c6.54,8.63,6,17.49-1.7,25.17Q102.65,314.23,56,360.75c-4.85,4.85-9.69,9.73-14.57,14.55C27,389.49,6.32,384.11.59,364.71a4.21,4.21,0,0,0-.59-.92ZM258,240c62.68.27,114.31-50.91,114.72-113.71.41-63-51-114.74-114.19-115S143.71,62.39,143.57,125.54C143.42,188.33,194.79,239.71,258,240Zm-142,10,17.61,17.66c2.67-2.74,5.7-5.7,8.57-8.82,2.66-2.89,2.71-6.17.06-9s-5.56-5.73-8.51-8.4-5.94-2.55-8.75,0C121.69,244.24,118.63,247.34,115.93,250Z"/><path class="cls-2" d="M156.3,127.78c.24-24.9,7.07-45.33,20.68-63.49,2.05-2.74,4.55-4,7.76-2.46,2.92,1.41,3.63,4,2.7,7a13.23,13.23,0,0,1-2.18,3.46c-36.92,50.46-13,122,47,139.75,28.29,8.36,54.84,3.65,79-13.35,4.84-3.4,8.2-3.62,10.45-.49s1,6.27-3.83,9.77c-61.7,45-150.52,7.21-160.5-68.25C156.78,135,156.53,130.27,156.3,127.78Z"/><path class="cls-2" d="M254.92,24c56.06,0,99.62,39.71,104.55,92.35,2.43,25.94-4.49,49.33-19.86,70.31-1.65,2.25-3.56,4-6.56,3.39-4.4-.82-5.94-5.66-2.93-9.7a93.3,93.3,0,0,0,14.48-28.12c17.07-54.48-21.1-111.4-78-116.39-22.88-2-43.53,3.8-62.1,17.2-.5.37-1,.74-1.53,1.08-3.19,2.07-6.32,1.72-8.3-.94s-1.45-5.85,1.57-8.17a102.54,102.54,0,0,1,58.68-21Z"/><path class="cls-1" d="M238.37,125.76c-7.67-7.18-13.76-12.62-19.55-18.38-8.11-8.06-9-16.75-2.83-23.17,6.54-6.76,14.86-6.21,23.17,2,6,6,11.58,12.4,18.47,19.84,6.88-7.14,12.57-13.25,18.49-19.14C285,78.12,293.28,77.25,300,84.2c6.49,6.73,5.63,14.67-2.79,23.13-5.75,5.8-11.75,11.36-20.51,19.79,7.28,6,14.35,11.13,20.59,17.14,8.57,8.25,9.16,16.43,2.6,23.11-6.27,6.38-15.23,5.72-23.21-2.29-6-6-11.38-12.52-18.84-20.81-7.06,8-12.42,14.54-18.32,20.57-8,8.19-16.76,9-23.19,2.74s-5.74-15.17,2.24-23.14C224.53,138.48,230.83,132.84,238.37,125.76Z"/></g></g></svg>