<?xml version="1.0" encoding="utf-8"?>
<!-- Generator: Adobe Illustrator 26.0.3, SVG Export Plug-In . SVG Version: 6.00 Build 0)  -->
<svg version="1.1" id="Layer_1" xmlns="http://www.w3.org/2000/svg" xmlns:xlink="http://www.w3.org/1999/xlink" x="0px" y="0px"
	 viewBox="0 0 375 270" style="enable-background:new 0 0 375 270;" xml:space="preserve">
<style type="text/css">
	.st0{fill:#AF8660;}
	.st1{fill:#896340;}
	.st2{fill:#FFEECA;}
	.st3{fill:#BCA77E;}
	.st4{fill:#63522D;}
</style>
<path class="st0" d="M167.1,91h-132c-13.2,0-26,10.8-26,24v104c0,13.2,12.8,24,26,24h14v20l20-20h98c13.2,0,22-10.8,22-24V115
	C189.1,101.8,180.3,91,167.1,91z"/>
<g>
	<path class="st1" d="M167.1,91h-16c13.2,0,22,10.8,22,24v104c0,13.2-8.8,24-22,24h16c13.2,0,22-10.8,22-24V115
		C189.1,101.8,180.3,91,167.1,91z"/>
	<path class="st1" d="M167.1,91h-22v76.4c0,23,20.5,43.1,44,43.5v-96C189.1,101.8,180.3,91,167.1,91z"/>
</g>
<path class="st2" d="M174.7,11h154.1c15.4,0,26.4,13.7,26.4,30.9v135.7c0,17.2-11,32.1-26.4,32.1H310V235l-22.6-25.3H174.7
	c-15.4,0-29.6-14.9-29.6-32.1V41.9C145.1,24.7,159.3,11,174.7,11z"/>
<path class="st3" d="M334.4,11h-15c17.8,0,30.5,13.7,30.5,30.9v135.7c0,17.2-12.7,32.1-30.5,32.1h15c17.8,0,30.5-14.9,30.5-32.1
	V41.9C364.9,24.7,352.2,11,334.4,11z"/>
<g>
	<path class="st3" d="M218.8,78.5h53c5.3,0,9.6,4.3,9.6,9.6v38.6c0,5.3-4.3,9.6-9.6,9.6h-53c-5.3,0-9.6-4.3-9.6-9.6V88.1
		C209.2,82.8,213.5,78.5,218.8,78.5z"/>
	<path class="st3" d="M300.1,130.6l-18.6-11.2V95.3l18.6-11.2c2.4-1.5,5.5,0.3,5.5,3.1v40.2C305.6,130.3,302.6,132.1,300.1,130.6z"
		/>
</g>
<g>
	<path class="st4" d="M215.7,76.2h53c5.3,0,9.6,4.3,9.6,9.6v38.6c0,5.3-4.3,9.6-9.6,9.6h-53c-5.3,0-9.6-4.3-9.6-9.6V85.8
		C206,80.6,210.4,76.2,215.7,76.2z"/>
	<path class="st4" d="M297,128.4l-18.6-11.2V93.1L297,81.9c2.4-1.5,5.5,0.3,5.5,3.1v40.2C302.5,128.1,299.4,129.8,297,128.4z"/>
</g>
<ellipse class="st3" cx="195.7" cy="163.3" rx="11.2" ry="10.8"/>
<ellipse class="st3" cx="307.1" cy="163.3" rx="11.2" ry="10.8"/>
<ellipse class="st4" cx="194.3" cy="161.8" rx="11.2" ry="10.8"/>
<ellipse class="st4" cx="305.6" cy="161.8" rx="11.2" ry="10.8"/>
<ellipse class="st3" cx="270.1" cy="163.3" rx="11.2" ry="10.8"/>
<ellipse class="st4" cx="268.6" cy="161.8" rx="11.2" ry="10.8"/>
<ellipse class="st3" cx="232.7" cy="163.3" rx="11.2" ry="10.8"/>
<ellipse class="st4" cx="231.2" cy="161.8" rx="11.2" ry="10.8"/>
<path class="st1" d="M96.2,142.9l-6.3-6.2c-1.7-1.7-2.3-4.3-1.4-6.5l3-7.6c0.9-2.3,3.1-3.8,5.6-3.8l14-0.1c3.3,0,6.1,2.7,6.1,6.1
	c0,0.1,0,0.2,0,0.3c-3,53.5-48.2,64.6-65.5,66.7c-3.3,0.4-6.3-2-6.7-5.3c0-0.2,0-0.5,0-0.7l-0.1-13.5c0-2.5,1.5-4.7,3.8-5.6l7.6-3.1
	c2.2-0.9,4.8-0.4,6.5,1.3l6.3,6.2C69,170.9,93.3,167.1,96.2,142.9z"/>
<path class="st2" d="M93.8,140.3l-6.3-6.2c-1.7-1.7-2.3-4.3-1.4-6.5l3-7.6c0.9-2.3,3.1-3.8,5.6-3.8l14-0.1c3.3,0,6.1,2.7,6.1,6.1
	c0,0.1,0,0.2,0,0.3c-3,53.5-48.2,64.6-65.5,66.7c-3.3,0.4-6.3-2-6.7-5.3c0-0.2,0-0.5,0-0.7l-0.1-13.5c0-2.5,1.5-4.7,3.8-5.6l7.6-3.1
	c2.2-0.9,4.8-0.4,6.5,1.3l6.3,6.2C66.6,168.3,91,164.5,93.8,140.3z"/>
<ellipse class="st1" cx="78.6" cy="210.2" rx="7.5" ry="7.2"/>
<ellipse class="st1" cx="108.5" cy="210.2" rx="7.5" ry="7.2"/>
<ellipse class="st2" cx="77.4" cy="209.3" rx="7.5" ry="7.2"/>
<ellipse class="st2" cx="107.3" cy="209.3" rx="7.5" ry="7.2"/>
<ellipse class="st1" cx="48.6" cy="210.2" rx="7.5" ry="7.2"/>
<ellipse class="st2" cx="47.5" cy="209.3" rx="7.5" ry="7.2"/>
</svg>
